<?xml version="1.0" encoding="UTF-8" standalone="no"?>
<!-- Created with Inkscape (http://www.inkscape.org/) -->

<svg
   xmlns:dc="http://purl.org/dc/elements/1.1/"
   xmlns:cc="http://creativecommons.org/ns#"
   xmlns:rdf="http://www.w3.org/1999/02/22-rdf-syntax-ns#"
   xmlns:svg="http://www.w3.org/2000/svg"
   xmlns="http://www.w3.org/2000/svg"
   xmlns:sodipodi="http://sodipodi.sourceforge.net/DTD/sodipodi-0.dtd"
   xmlns:inkscape="http://www.inkscape.org/namespaces/inkscape"
   width="80"
   height="70"
   id="svg2"
   version="1.1"
   inkscape:version="0.48.2 r9819"
   sodipodi:docname="camera_icon.svg">
  <defs
     id="defs4" />
  <sodipodi:namedview
     id="base"
     pagecolor="#ffffff"
     bordercolor="#666666"
     borderopacity="1.0"
     inkscape:pageopacity="0.0"
     inkscape:pageshadow="2"
     inkscape:zoom="1"
     inkscape:cx="155.55576"
     inkscape:cy="276.00574"
     inkscape:document-units="px"
     inkscape:current-layer="layer1"
     showgrid="false"
     inkscape:window-width="1373"
     inkscape:window-height="873"
     inkscape:window-x="1947"
     inkscape:window-y="21"
     inkscape:window-maximized="0"
     fit-margin-top="0"
     fit-margin-left="0"
     fit-margin-right="0"
     fit-margin-bottom="0" />
  <metadata
     id="metadata7">
    <rdf:RDF>
      <cc:Work
         rdf:about="">
        <dc:format>image/svg+xml</dc:format>
        <dc:type
           rdf:resource="http://purl.org/dc/dcmitype/StillImage" />
        <dc:title></dc:title>
      </cc:Work>
    </rdf:RDF>
  </metadata>
  <g
     inkscape:label="Layer 1"
     inkscape:groupmode="layer"
     id="layer1"
     transform="translate(-152.91456,-518.30811)">
    <g
       id="g3064"
       transform="matrix(0.18181818,0,0,0.18181818,127.71976,501.69251)"
       style="fill:#737378;fill-opacity:1">
      <path
         id="path3012-5"
         transform="matrix(0.593361,0,0,-0.593361,371.92205,487.53224)"
         style="color:#000000;fill:#737378;fill-opacity:1;fill-rule:nonzero;stroke:none;stroke-width:20;marker:none;visibility:visible;display:inline;overflow:visible;enable-background:accumulate"
         d="m 98,296.86218 c 0,66.55031 -53.949688,120.5 -120.5,120.5 -66.550312,0 -120.5,-53.94969 -120.5,-120.5 0,-66.55031 53.949688,-120.5 120.5,-120.5 66.550312,0 120.5,53.94969 120.5,120.5 z m 64.88462,0 c 0,102.38509 -82.99952,185.38462 -185.384614,185.38462 -102.385096,0 -185.384616,-82.99953 -185.384616,-185.38462 0,-102.38509 82.99952,-185.38461 185.384616,-185.38461 102.385094,0 185.384614,82.99952 185.384614,185.38461 z m -315.15383,370.76923 c -17.97304,0 -25.99037,-15.66726 -32.44231,-32.44231 l -23.17307,-60.25 c 123.589745,0 247.179475,0 370.76922,0 l -23.17307,60.25 c -6.45194,16.77507 -14.46925,32.44231 -32.44231,32.44231 l -115.6915861,0 z m -157.57694,-92.69231 574.6923,0 c 46.21639,0 83.42308,-37.20669 83.42308,-83.42307 l 0,-389.30769 c 0,-46.216388 -37.20669,-83.42308 -83.42308,-83.42308 l -574.6923,0 c -46.21638,0 -83.42308,37.206692 -83.42308,83.42308 l 0,389.30769 c 0,46.21638 37.2067,83.42307 83.42308,83.42307 z"
         inkscape:connector-curvature="0" />
    </g>
  </g>
</svg>
