<?xml version="1.0" encoding="UTF-8" standalone="no"?>
<!-- Created with Inkscape (http://www.inkscape.org/) -->

<svg
   xmlns:dc="http://purl.org/dc/elements/1.1/"
   xmlns:cc="http://creativecommons.org/ns#"
   xmlns:rdf="http://www.w3.org/1999/02/22-rdf-syntax-ns#"
   xmlns:svg="http://www.w3.org/2000/svg"
   xmlns="http://www.w3.org/2000/svg"
   xmlns:sodipodi="http://sodipodi.sourceforge.net/DTD/sodipodi-0.dtd"
   xmlns:inkscape="http://www.inkscape.org/namespaces/inkscape"
   width="50"
   height="50"
   id="svg4130"
   version="1.1"
   inkscape:version="0.48.2 r9819"
   sodipodi:docname="current_location.svg">
  <defs
     id="defs4132" />
  <sodipodi:namedview
     id="base"
     pagecolor="#ffffff"
     bordercolor="#666666"
     borderopacity="1.0"
     inkscape:pageopacity="0.0"
     inkscape:pageshadow="2"
     inkscape:zoom="2.8"
     inkscape:cx="40.123841"
     inkscape:cy="-65.100754"
     inkscape:document-units="px"
     inkscape:current-layer="layer1"
     showgrid="false"
     fit-margin-top="0"
     fit-margin-left="0"
     fit-margin-right="0"
     fit-margin-bottom="0"
     inkscape:window-width="1127"
     inkscape:window-height="758"
     inkscape:window-x="2044"
     inkscape:window-y="29"
     inkscape:window-maximized="0" />
  <metadata
     id="metadata4135">
    <rdf:RDF>
      <cc:Work
         rdf:about="">
        <dc:format>image/svg+xml</dc:format>
        <dc:type
           rdf:resource="http://purl.org/dc/dcmitype/StillImage" />
        <dc:title></dc:title>
      </cc:Work>
    </rdf:RDF>
  </metadata>
  <g
     inkscape:label="Layer 1"
     inkscape:groupmode="layer"
     id="layer1"
     transform="translate(-224.42857,-372.21933)">
    <path
       inkscape:connector-curvature="0"
       id="path3825-6-1-7-0"
       style="font-size:medium;font-style:normal;font-variant:normal;font-weight:normal;font-stretch:normal;text-indent:0;text-align:start;text-decoration:none;line-height:normal;letter-spacing:normal;word-spacing:normal;text-transform:none;direction:ltr;block-progression:tb;writing-mode:lr-tb;text-anchor:start;baseline-shift:baseline;color:#000000;fill:#0d70eb;fill-opacity:1;fill-rule:nonzero;stroke:none;stroke-width:20;marker:none;visibility:visible;display:inline;overflow:visible;enable-background:accumulate;font-family:Sans;-inkscape-font-specification:Sans"
       d="m 227.93324,394.88288 0,4.6729 11.71145,0 0.40158,0 a 2.3366823,2.3366823 0 0 0 0,-4.6729 l -0.40158,0 -11.71145,0 z m 32.04586,0 a 2.3366823,2.3366823 0 0 0 0,4.6729 l 0.40157,0 11.71145,0 0,-4.6729 -11.71145,0 -0.40157,0 z m -10.65275,9.41881 a 2.3366823,2.3366823 0 0 0 -2.23423,2.29994 l 0,0.40158 0,11.71144 4.6729,0 0,-11.71144 0,-0.40158 a 2.3366823,2.3366823 0 0 0 -2.43867,-2.29994 z m -2.23423,-29.74591 0,11.70414 0,0.40158 a 2.3366823,2.3366823 0 0 0 4.6729,0 l 0,-0.40158 0,-11.70414 -4.6729,0 z m 2.33645,-2.33645 c -13.80712,0 -25,11.19288 -25,25 0,13.80712 11.19288,25 25,25 13.80712,0 25,-11.19288 25,-25 0,-13.80712 -11.19288,-25 -25,-25 z m 0,8.52803 c 9.09722,0 16.47197,7.37475 16.47197,16.47197 0,9.09721 -7.37475,16.47196 -16.47197,16.47196 -9.09721,0 -16.47196,-7.37475 -16.47196,-16.47196 0,-9.09722 7.37475,-16.47197 16.47196,-16.47197 z"
       inkscape:export-filename="/Users/jen/Design/yumhacker/graphics/current_location.png"
       inkscape:export-xdpi="90"
       inkscape:export-ydpi="90" />
  </g>
</svg>
