<?xml version="1.0" encoding="UTF-8" standalone="no"?>
<!-- Created with Inkscape (http://www.inkscape.org/) -->

<svg
   xmlns:dc="http://purl.org/dc/elements/1.1/"
   xmlns:cc="http://creativecommons.org/ns#"
   xmlns:rdf="http://www.w3.org/1999/02/22-rdf-syntax-ns#"
   xmlns:svg="http://www.w3.org/2000/svg"
   xmlns="http://www.w3.org/2000/svg"
   xmlns:sodipodi="http://sodipodi.sourceforge.net/DTD/sodipodi-0.dtd"
   xmlns:inkscape="http://www.inkscape.org/namespaces/inkscape"
   width="300"
   height="55.671516"
   id="svg6622"
   version="1.1"
   inkscape:version="0.48.2 r9819"
   sodipodi:docname="fb_signup.svg">
  <defs
     id="defs6624" />
  <sodipodi:namedview
     id="base"
     pagecolor="#ffffff"
     bordercolor="#666666"
     borderopacity="1.0"
     inkscape:pageopacity="0.0"
     inkscape:pageshadow="2"
     inkscape:zoom="0.98994949"
     inkscape:cx="121.00838"
     inkscape:cy="73.321166"
     inkscape:document-units="px"
     inkscape:current-layer="layer1"
     showgrid="false"
     fit-margin-top="0"
     fit-margin-left="0"
     fit-margin-right="0"
     fit-margin-bottom="0"
     inkscape:window-width="1004"
     inkscape:window-height="846"
     inkscape:window-x="2021"
     inkscape:window-y="51"
     inkscape:window-maximized="0" />
  <metadata
     id="metadata6627">
    <rdf:RDF>
      <cc:Work
         rdf:about="">
        <dc:format>image/svg+xml</dc:format>
        <dc:type
           rdf:resource="http://purl.org/dc/dcmitype/StillImage" />
        <dc:title />
      </cc:Work>
    </rdf:RDF>
  </metadata>
  <g
     inkscape:label="Layer 1"
     inkscape:groupmode="layer"
     id="layer1"
     transform="translate(-424.4643,-367.7635)">
    <g
       transform="matrix(0.30927836,0,0,0.30927836,988.23112,136.60833)"
       id="g4611">
      <g
         id="g4603">
        <g
           id="g4565">
          <path
             sodipodi:nodetypes="csssscc"
             inkscape:connector-curvature="0"
             id="rect4230-3"
             d="m -1647.846,747.40169 789.99998,0 c 2.77,0 5,2.23 5,5 l 0,170 c 0,2.77 -2.23,5 -5,5 l -789.99998,0 c 0.081,0.11333 0,-180 0,-180 z"
             style="color:#000000;fill:#3b5998;fill-opacity:1;fill-rule:nonzero;stroke:none;stroke-width:2;marker:none;visibility:visible;display:inline;overflow:visible;enable-background:accumulate" />
          <path
             sodipodi:nodetypes="cc"
             inkscape:connector-curvature="0"
             id="path4263-4-2"
             d="m -1646.8494,926.40508 0,-178.00672"
             style="fill:none;stroke:#ffffff;stroke-width:1.99331927;stroke-linecap:square;stroke-linejoin:miter;stroke-miterlimit:4;stroke-opacity:0.19607843;stroke-dasharray:none" />
        </g>
        <g
           id="text3811-5-2-4"
           style="font-size:56px;font-style:normal;font-variant:normal;font-weight:normal;font-stretch:normal;text-align:start;line-height:125%;letter-spacing:0px;word-spacing:0px;writing-mode:lr-tb;text-anchor:start;fill:#ffffff;fill-opacity:1;stroke:none;font-family:Sans;-inkscape-font-specification:Sans">
          <path
             inkscape:connector-curvature="0"
             id="path5228"
             style="font-size:64px;line-height:125%;font-family:Avenir;-inkscape-font-specification:Avenir"
             d="m -1556.3296,814.55375 c -2.0053,-2.94396 -4.928,-4.41596 -8.768,-4.416 -1.1947,4e-5 -2.368,0.17071 -3.52,0.512 -1.152,0.2987 -2.1973,0.78937 -3.136,1.472 -0.896,0.64004 -1.6213,1.49337 -2.176,2.56 -0.5547,1.02403 -0.832,2.24003 -0.832,3.648 0,2.04803 0.576,3.64803 1.728,4.8 1.152,1.10936 2.5813,2.02669 4.288,2.752 1.7067,0.72536 3.5627,1.38669 5.568,1.984 2.048,0.55469 3.9253,1.32269 5.632,2.304 1.7067,0.93868 3.136,2.19735 4.288,3.776 1.152,1.57868 1.728,3.73334 1.728,6.464 0,2.04801 -0.448,3.904 -1.344,5.568 -0.8533,1.62133 -2.0053,2.98667 -3.456,4.096 -1.408,1.10933 -3.008,1.96266 -4.8,2.56 -1.7493,0.59733 -3.52,0.896 -5.312,0.896 -2.7733,0 -5.4187,-0.512 -7.936,-1.536 -2.4746,-1.06667 -4.5866,-2.79467 -6.336,-5.184 l 4.16,-3.008 c 0.9814,1.664 2.3467,3.008 4.096,4.032 1.7493,0.98133 3.8187,1.472 6.208,1.472 1.152,0 2.304,-0.17067 3.456,-0.512 1.152,-0.384 2.176,-0.91733 3.072,-1.6 0.9387,-0.72533 1.7067,-1.6 2.304,-2.624 0.5973,-1.02399 0.896,-2.19733 0.896,-3.52 0,-1.57866 -0.3413,-2.87999 -1.024,-3.904 -0.64,-1.06665 -1.5147,-1.94132 -2.624,-2.624 -1.0667,-0.72532 -2.304,-1.32265 -3.712,-1.792 -1.3653,-0.46932 -2.7947,-0.93865 -4.288,-1.408 -1.4507,-0.46932 -2.88,-1.00265 -4.288,-1.6 -1.3653,-0.59731 -2.6026,-1.34398 -3.712,-2.24 -1.0666,-0.93864 -1.9413,-2.09064 -2.624,-3.456 -0.64,-1.40797 -0.96,-3.15731 -0.96,-5.248 0,-2.17597 0.4054,-4.07463 1.216,-5.696 0.8534,-1.6213 1.9627,-2.96529 3.328,-4.032 1.408,-1.06663 2.9867,-1.85596 4.736,-2.368 1.7493,-0.51196 3.5413,-0.76796 5.376,-0.768 2.56,4e-5 4.8853,0.40538 6.976,1.216 2.0907,0.81071 4.032,2.24004 5.824,4.288 l -4.032,3.136" />
          <path
             inkscape:connector-curvature="0"
             id="path5230"
             style="font-size:64px;line-height:125%;font-family:Avenir;-inkscape-font-specification:Avenir"
             d="m -1537.5366,810.90575 c 0,0.89604 -0.32,1.6427 -0.96,2.24 -0.64,0.5547 -1.344,0.83203 -2.112,0.832 -0.768,3e-5 -1.472,-0.2773 -2.112,-0.832 -0.64,-0.5973 -0.96,-1.34396 -0.96,-2.24 0,-0.89596 0.32,-1.62129 0.96,-2.176 0.64,-0.59729 1.344,-0.89596 2.112,-0.896 0.768,4e-5 1.472,0.29871 2.112,0.896 0.64,0.55471 0.96,1.28004 0.96,2.176 m -0.96,41.472 -4.224,0 0,-29.952 4.224,0 0,29.952" />
          <path
             inkscape:connector-curvature="0"
             id="path5232"
             style="font-size:64px;line-height:125%;font-family:Avenir;-inkscape-font-specification:Avenir"
             d="m -1525.2336,837.01775 c 0,1.57868 0.2774,3.07201 0.832,4.48 0.5974,1.36534 1.3867,2.58134 2.368,3.648 1.024,1.024 2.1973,1.856 3.52,2.496 1.3653,0.59733 2.8373,0.896 4.416,0.896 1.536,0 2.9867,-0.27733 4.352,-0.832 1.408,-0.55466 2.6453,-1.32266 3.712,-2.304 1.0667,-1.024 1.8773,-2.23999 2.432,-3.648 0.5973,-1.40799 0.8747,-2.98666 0.832,-4.736 0,-1.57865 -0.256,-3.05065 -0.768,-4.416 -0.512,-1.40798 -1.2587,-2.62398 -2.24,-3.648 -0.9813,-1.06665 -2.176,-1.89864 -3.584,-2.496 -1.408,-0.63998 -2.9867,-0.95998 -4.736,-0.96 -1.5787,2e-5 -3.0507,0.32002 -4.416,0.96 -1.3227,0.59736 -2.496,1.42935 -3.52,2.496 -0.9813,1.02402 -1.7706,2.24002 -2.368,3.648 -0.5546,1.36535 -0.832,2.83735 -0.832,4.416 m -0.768,21.376 c 1.2374,1.66399 2.8373,2.98665 4.8,3.968 2.0053,1.02399 4.224,1.53599 6.656,1.536 2.1333,-10e-6 3.9467,-0.32001 5.44,-0.96 1.4933,-0.59735 2.688,-1.42935 3.584,-2.496 0.9387,-1.06668 1.6,-2.32534 1.984,-3.776 0.4267,-1.40801 0.64,-2.92267 0.64,-4.544 l 0,-5.376 -0.128,0 c -1.3653,2.048 -3.0293,3.49867 -4.992,4.352 -1.9627,0.85333 -4.032,1.28 -6.208,1.28 -2.176,0 -4.224,-0.384 -6.144,-1.152 -1.8773,-0.768 -3.52,-1.81333 -4.928,-3.136 -1.408,-1.36533 -2.5173,-2.98666 -3.328,-4.864 -0.8106,-1.87733 -1.216,-3.90399 -1.216,-6.08 0,-2.17599 0.384,-4.20265 1.152,-6.08 0.768,-1.87731 1.8134,-3.51998 3.136,-4.928 1.3654,-1.40798 2.9653,-2.49597 4.8,-3.264 1.8773,-0.81064 3.9253,-1.21597 6.144,-1.216 0.896,3e-5 1.8347,0.0854 2.816,0.256 1.024,0.17069 2.0267,0.46936 3.008,0.896 1.024,0.42669 2.0267,1.02403 3.008,1.792 0.9813,0.72536 1.8987,1.66402 2.752,2.816 l 0.128,0 0,-4.992 4.224,0 0,29.696 c 0,1.62133 -0.2133,3.34933 -0.64,5.184 -0.384,1.83466 -1.1733,3.51999 -2.368,5.056 -1.152,1.53599 -2.7733,2.81598 -4.864,3.84 -2.0907,1.02398 -4.8213,1.53598 -8.192,1.536 -2.9867,-2e-5 -5.6533,-0.49068 -8,-1.472 -2.3466,-0.98135 -4.48,-2.49601 -6.4,-4.544 l 3.136,-3.328" />
          <path
             inkscape:connector-curvature="0"
             id="path5234"
             style="font-size:64px;line-height:125%;font-family:Avenir;-inkscape-font-specification:Avenir"
             d="m -1485.1486,822.42575 c 0.085,0.81069 0.128,1.62136 0.128,2.432 0.043,0.76802 0.064,1.55736 0.064,2.368 l 0.128,0 c 0.4693,-0.81064 1.0667,-1.55731 1.792,-2.24 0.7253,-0.68264 1.536,-1.25864 2.432,-1.728 0.896,-0.51197 1.8347,-0.89597 2.816,-1.152 1.024,-0.29864 2.0267,-0.44797 3.008,-0.448 3.84,3e-5 6.6773,1.02403 8.512,3.072 1.8347,2.00536 2.752,4.88535 2.752,8.64 l 0,19.008 -4.224,0 0,-16.576 c 0,-3.32798 -0.576,-5.86665 -1.728,-7.616 -1.152,-1.79198 -3.2853,-2.68798 -6.4,-2.688 -0.2133,2e-5 -0.8107,0.0854 -1.792,0.256 -0.9813,0.17069 -2.0267,0.64002 -3.136,1.408 -1.0667,0.76802 -2.0267,1.92002 -2.88,3.456 -0.8533,1.53602 -1.28,3.66935 -1.28,6.4 l 0,15.36 -4.224,0 0,-23.36 c 0,-0.81065 -0.043,-1.83464 -0.128,-3.072 -0.043,-1.23731 -0.1066,-2.41064 -0.192,-3.52 l 4.352,0" />
          <path
             inkscape:connector-curvature="0"
             id="path5236"
             style="font-size:64px;line-height:125%;font-family:Avenir;-inkscape-font-specification:Avenir"
             d="m -1414.1736,852.37775 c -0.085,-0.81067 -0.1493,-1.6 -0.192,-2.368 0,-0.81067 0,-1.62133 0,-2.432 l -0.128,0 c -0.4693,0.81067 -1.0667,1.55733 -1.792,2.24 -0.7253,0.68267 -1.536,1.28 -2.432,1.792 -0.896,0.46933 -1.856,0.832 -2.88,1.088 -0.9813,0.29866 -1.9627,0.448 -2.944,0.448 -3.84,0 -6.6773,-1.00267 -8.512,-3.008 -1.8346,-2.048 -2.752,-4.94933 -2.752,-8.704 l 0,-19.008 4.224,0 0,16.576 c 0,1.66401 0.128,3.13601 0.384,4.416 0.256,1.28 0.6827,2.368 1.28,3.264 0.64,0.85333 1.472,1.51467 2.496,1.984 1.0667,0.42667 2.3893,0.64 3.968,0.64 0.2133,0 0.8107,-0.0853 1.792,-0.256 0.9813,-0.17067 2.0053,-0.64 3.072,-1.408 1.1093,-0.768 2.0907,-1.92 2.944,-3.456 0.8533,-1.53599 1.28,-3.66932 1.28,-6.4 l 0,-15.36 4.224,0 0,23.36 c 0,0.81067 0.021,1.83467 0.064,3.072 0.085,1.23733 0.1707,2.41066 0.256,3.52 l -4.352,0" />
          <path
             inkscape:connector-curvature="0"
             id="path5238"
             style="font-size:64px;line-height:125%;font-family:Avenir;-inkscape-font-specification:Avenir"
             d="m -1372.8526,837.40175 c 0,-1.66399 -0.2773,-3.22132 -0.832,-4.672 -0.512,-1.45065 -1.2587,-2.70931 -2.24,-3.776 -0.9813,-1.06665 -2.176,-1.89864 -3.584,-2.496 -1.3653,-0.63998 -2.9227,-0.95998 -4.672,-0.96 -1.7493,2e-5 -3.3493,0.32002 -4.8,0.96 -1.4507,0.59736 -2.7093,1.42935 -3.776,2.496 -1.0667,1.06669 -1.8987,2.32535 -2.496,3.776 -0.5973,1.45068 -0.896,3.00801 -0.896,4.672 0,1.66401 0.2987,3.22134 0.896,4.672 0.5973,1.45067 1.4293,2.70934 2.496,3.776 1.0667,1.06667 2.3253,1.92 3.776,2.56 1.4507,0.59733 3.0507,0.896 4.8,0.896 1.7493,0 3.3067,-0.29867 4.672,-0.896 1.408,-0.64 2.6027,-1.49333 3.584,-2.56 0.9813,-1.06666 1.728,-2.32533 2.24,-3.776 0.5547,-1.45066 0.832,-3.00799 0.832,-4.672 m -27.328,-14.976 4.224,0 0,4.992 0.128,0 c 0.6827,-1.02398 1.4933,-1.89864 2.432,-2.624 0.9387,-0.72531 1.92,-1.32264 2.944,-1.792 1.024,-0.46931 2.0693,-0.81064 3.136,-1.024 1.1093,-0.21331 2.1547,-0.31997 3.136,-0.32 2.3467,3e-5 4.48,0.40536 6.4,1.216 1.9627,0.76803 3.648,1.85602 5.056,3.264 1.408,1.40802 2.496,3.07202 3.264,4.992 0.8107,1.92002 1.216,4.01068 1.216,6.272 0,2.26134 -0.4053,4.35201 -1.216,6.272 -0.768,1.92 -1.856,3.584 -3.264,4.992 -1.408,1.408 -3.0933,2.51733 -5.056,3.328 -1.92,0.768 -4.0533,1.152 -6.4,1.152 -0.9813,0 -2.0267,-0.10667 -3.136,-0.32 -1.0667,-0.21334 -2.112,-0.55467 -3.136,-1.024 -1.024,-0.46934 -2.0053,-1.06667 -2.944,-1.792 -0.9387,-0.72533 -1.7493,-1.6 -2.432,-2.624 l -0.128,0 0,23.424 -4.224,0 0,-48.384" />
          <path
             inkscape:connector-curvature="0"
             id="path5240"
             style="font-size:64px;line-height:125%;font-family:Avenir;-inkscape-font-specification:Avenir"
             d="m -1342.0256,822.42575 6.912,24.32 0.128,0 8,-24.32 4.352,0 8,24.32 0.128,0 6.912,-24.32 4.992,0 -9.472,29.952 -4.736,0 -7.936,-24.576 -0.128,0 -7.936,24.576 -4.736,0 -9.472,-29.952 4.992,0" />
          <path
             inkscape:connector-curvature="0"
             id="path5242"
             style="font-size:64px;line-height:125%;font-family:Avenir;-inkscape-font-specification:Avenir"
             d="m -1290.9116,810.90575 c 0,0.89604 -0.32,1.6427 -0.96,2.24 -0.64,0.5547 -1.344,0.83203 -2.112,0.832 -0.768,3e-5 -1.472,-0.2773 -2.112,-0.832 -0.64,-0.5973 -0.96,-1.34396 -0.96,-2.24 0,-0.89596 0.32,-1.62129 0.96,-2.176 0.64,-0.59729 1.344,-0.89596 2.112,-0.896 0.768,4e-5 1.472,0.29871 2.112,0.896 0.64,0.55471 0.96,1.28004 0.96,2.176 m -0.96,41.472 -4.224,0 0,-29.952 4.224,0 0,29.952" />
          <path
             inkscape:connector-curvature="0"
             id="path5244"
             style="font-size:64px;line-height:125%;font-family:Avenir;-inkscape-font-specification:Avenir"
             d="m -1266.1926,826.26575 -8.64,0 0,17.664 c 0,1.10934 0.1067,2.02667 0.32,2.752 0.2133,0.68267 0.512,1.216 0.896,1.6 0.384,0.384 0.832,0.66133 1.344,0.832 0.5547,0.128 1.152,0.192 1.792,0.192 0.7253,0 1.472,-0.10667 2.24,-0.32 0.768,-0.21333 1.472,-0.49067 2.112,-0.832 l 0.192,3.904 c -1.5787,0.72533 -3.4773,1.088 -5.696,1.088 -0.8107,0 -1.664,-0.10667 -2.56,-0.32 -0.8533,-0.21334 -1.6427,-0.61867 -2.368,-1.216 -0.7253,-0.59734 -1.3226,-1.408 -1.792,-2.432 -0.4693,-1.024 -0.704,-2.368 -0.704,-4.032 l 0,-18.88 -6.336,0 0,-3.84 6.336,0 0,-8.448 4.224,0 0,8.448 8.64,0 0,3.84" />
          <path
             inkscape:connector-curvature="0"
             id="path5246"
             style="font-size:64px;line-height:125%;font-family:Avenir;-inkscape-font-specification:Avenir"
             d="m -1260.4306,803.99375 4.224,0 0,23.232 0.128,0 c 0.4693,-0.81064 1.0667,-1.55731 1.792,-2.24 0.7253,-0.68264 1.536,-1.25864 2.432,-1.728 0.896,-0.51197 1.8347,-0.89597 2.816,-1.152 1.024,-0.29864 2.0267,-0.44797 3.008,-0.448 3.84,3e-5 6.6773,1.02403 8.512,3.072 1.8347,2.00536 2.752,4.88535 2.752,8.64 l 0,19.008 -4.224,0 0,-16.576 c 0,-3.32798 -0.576,-5.86665 -1.728,-7.616 -1.152,-1.79198 -3.2853,-2.68798 -6.4,-2.688 -0.2133,2e-5 -0.8107,0.0854 -1.792,0.256 -0.9813,0.17069 -2.0267,0.64002 -3.136,1.408 -1.0667,0.76802 -2.0267,1.92002 -2.88,3.456 -0.8533,1.53602 -1.28,3.66935 -1.28,6.4 l 0,15.36 -4.224,0 0,-48.384" />
          <path
             inkscape:connector-curvature="0"
             id="path5248"
             style="font-weight:900;line-height:125%;font-family:Avenir;-inkscape-font-specification:Avenir Heavy"
             d="m -1206.6076,807.06575 29.248,0 0,7.296 -21.184,0 0,11.904 19.968,0 0,7.296 -19.968,0 0,18.816 -8.064,0 0,-45.312" />
          <path
             inkscape:connector-curvature="0"
             id="path5250"
             style="font-weight:900;line-height:125%;font-family:Avenir;-inkscape-font-specification:Avenir Heavy"
             d="m -1151.3616,848.15375 -0.192,0 c -1.1093,1.74933 -2.5173,3.02933 -4.224,3.84 -1.7067,0.768 -3.584,1.152 -5.632,1.152 -1.408,0 -2.7947,-0.192 -4.16,-0.576 -1.3226,-0.384 -2.5173,-0.96 -3.584,-1.728 -1.024,-0.768 -1.856,-1.728 -2.496,-2.88 -0.64,-1.152 -0.96,-2.496 -0.96,-4.032 0,-1.66399 0.2987,-3.07199 0.896,-4.224 0.5974,-1.19466 1.3867,-2.17599 2.368,-2.944 1.024,-0.81065 2.1974,-1.45065 3.52,-1.92 1.3227,-0.46932 2.688,-0.81065 4.096,-1.024 1.4507,-0.25598 2.9013,-0.40532 4.352,-0.448 1.4507,-0.0853 2.816,-0.12798 4.096,-0.128 l 1.92,0 0,-0.832 c 0,-1.91998 -0.6613,-3.34931 -1.984,-4.288 -1.3227,-0.98131 -3.008,-1.47198 -5.056,-1.472 -1.6213,2e-5 -3.136,0.29869 -4.544,0.896 -1.408,0.55469 -2.624,1.32269 -3.648,2.304 l -4.032,-4.032 c 1.7067,-1.74931 3.6907,-3.00797 5.952,-3.776 2.304,-0.76797 4.672,-1.15197 7.104,-1.152 2.176,3e-5 4.0107,0.25603 5.504,0.768 1.4933,0.46936 2.7307,1.08803 3.712,1.856 0.9813,0.76802 1.728,1.66402 2.24,2.688 0.5547,0.98136 0.9387,1.98402 1.152,3.008 0.256,1.02402 0.4053,2.02668 0.448,3.008 0.043,0.93868 0.064,1.77068 0.064,2.496 l 0,17.664 -6.912,0 0,-4.224 m -0.448,-9.536 -1.6,0 c -1.0667,10e-6 -2.2613,0.0427 -3.584,0.128 -1.3227,0.0853 -2.5813,0.29868 -3.776,0.64 -1.152,0.29868 -2.1333,0.76801 -2.944,1.408 -0.8107,0.59734 -1.216,1.45067 -1.216,2.56 0,0.72534 0.1493,1.344 0.448,1.856 0.3413,0.46934 0.768,0.87467 1.28,1.216 0.512,0.34134 1.088,0.59734 1.728,0.768 0.64,0.128 1.28,0.192 1.92,0.192 2.6453,0 4.5867,-0.61866 5.824,-1.856 1.28,-1.28 1.92,-3.00799 1.92,-5.184 l 0,-1.728" />
          <path
             inkscape:connector-curvature="0"
             id="path5252"
             style="font-weight:900;line-height:125%;font-family:Avenir;-inkscape-font-specification:Avenir Heavy"
             d="m -1115.1946,830.87375 c -0.896,-0.93865 -1.8347,-1.68531 -2.816,-2.24 -0.9813,-0.55465 -1.984,-0.83198 -3.008,-0.832 -1.408,2e-5 -2.6667,0.25602 -3.776,0.768 -1.1093,0.51202 -2.0693,1.19469 -2.88,2.048 -0.768,0.85335 -1.3653,1.83468 -1.792,2.944 -0.384,1.10935 -0.576,2.26135 -0.576,3.456 0,1.19468 0.192,2.34668 0.576,3.456 0.4267,1.10934 1.024,2.09067 1.792,2.944 0.8107,0.85334 1.7707,1.536 2.88,2.048 1.1093,0.512 2.368,0.768 3.776,0.768 1.1947,0 2.304,-0.23466 3.328,-0.704 1.024,-0.512 1.8987,-1.23733 2.624,-2.176 l 5.12,5.504 c -0.768,0.768 -1.664,1.42933 -2.688,1.984 -0.9813,0.55466 -1.984,1.00266 -3.008,1.344 -1.024,0.34133 -2.0053,0.576 -2.944,0.704 -0.9387,0.17066 -1.7493,0.256 -2.432,0.256 -2.304,0 -4.48,-0.384 -6.528,-1.152 -2.048,-0.768 -3.8187,-1.856 -5.312,-3.264 -1.4933,-1.408 -2.688,-3.09333 -3.584,-5.056 -0.8533,-2.00533 -1.28,-4.22399 -1.28,-6.656 0,-2.43199 0.4267,-4.62932 1.28,-6.592 0.896,-2.00531 2.0907,-3.71198 3.584,-5.12 1.4933,-1.40797 3.264,-2.49597 5.312,-3.264 2.048,-0.76797 4.224,-1.15197 6.528,-1.152 1.9627,3e-5 3.9253,0.38403 5.888,1.152 2.0053,0.72536 3.7547,1.89869 5.248,3.52 l -5.312,5.312" />
          <path
             inkscape:connector-curvature="0"
             id="path5254"
             style="font-weight:900;line-height:125%;font-family:Avenir;-inkscape-font-specification:Avenir Heavy"
             d="m -1099.1676,839.70575 c 0.256,2.30401 1.152,4.09601 2.688,5.376 1.536,1.28 3.392,1.92 5.568,1.92 1.92,0 3.52,-0.384 4.8,-1.152 1.3227,-0.81066 2.4747,-1.81333 3.456,-3.008 l 5.504,4.16 c -1.792,2.21867 -3.7973,3.79733 -6.016,4.736 -2.2187,0.93866 -4.544,1.408 -6.976,1.408 -2.304,0 -4.48,-0.384 -6.528,-1.152 -2.048,-0.768 -3.8187,-1.856 -5.312,-3.264 -1.4933,-1.408 -2.688,-3.09333 -3.584,-5.056 -0.8533,-2.00533 -1.28,-4.22399 -1.28,-6.656 0,-2.43199 0.4267,-4.62932 1.28,-6.592 0.896,-2.00531 2.0907,-3.71198 3.584,-5.12 1.4933,-1.40797 3.264,-2.49597 5.312,-3.264 2.048,-0.76797 4.224,-1.15197 6.528,-1.152 2.1333,3e-5 4.0747,0.38403 5.824,1.152 1.792,0.72536 3.3067,1.79203 4.544,3.2 1.28,1.40802 2.2613,3.15735 2.944,5.248 0.7253,2.04802 1.088,4.41601 1.088,7.104 l 0,2.112 -23.424,0 m 15.744,-5.76 c -0.043,-2.26132 -0.7467,-4.03198 -2.112,-5.312 -1.3653,-1.32265 -3.264,-1.98398 -5.696,-1.984 -2.304,2e-5 -4.1387,0.66135 -5.504,1.984 -1.3227,1.32269 -2.1333,3.09335 -2.432,5.312 l 15.744,0" />
          <path
             inkscape:connector-curvature="0"
             id="path5256"
             style="font-weight:900;line-height:125%;font-family:Avenir;-inkscape-font-specification:Avenir Heavy"
             d="m -1068.5616,803.99375 7.68,0 0,21.568 0.192,0 c 0.384,-0.51198 0.8747,-1.02398 1.472,-1.536 0.5973,-0.55464 1.3227,-1.06664 2.176,-1.536 0.8533,-0.46931 1.8347,-0.85331 2.944,-1.152 1.1093,-0.29864 2.3893,-0.44797 3.84,-0.448 2.176,3e-5 4.1813,0.42669 6.016,1.28 1.8347,0.81069 3.392,1.94136 4.672,3.392 1.3227,1.45069 2.3467,3.15735 3.072,5.12 0.7253,1.96268 1.088,4.07468 1.088,6.336 0,2.26134 -0.3413,4.37334 -1.024,6.336 -0.6827,1.96267 -1.6853,3.66934 -3.008,5.12 -1.3227,1.45067 -2.9227,2.60266 -4.8,3.456 -1.8773,0.81066 -3.9893,1.216 -6.336,1.216 -2.176,0 -4.2027,-0.42667 -6.08,-1.28 -1.8773,-0.85334 -3.3707,-2.21867 -4.48,-4.096 l -0.128,0 0,4.608 -7.296,0 0,-48.384 m 25.472,33.024 c 0,-1.19465 -0.2133,-2.34665 -0.64,-3.456 -0.384,-1.10932 -0.9813,-2.09065 -1.792,-2.944 -0.768,-0.85331 -1.7067,-1.53598 -2.816,-2.048 -1.1093,-0.51198 -2.368,-0.76798 -3.776,-0.768 -1.408,2e-5 -2.6667,0.25602 -3.776,0.768 -1.1093,0.51202 -2.0693,1.19469 -2.88,2.048 -0.768,0.85335 -1.3653,1.83468 -1.792,2.944 -0.384,1.10935 -0.576,2.26135 -0.576,3.456 0,1.19468 0.192,2.34668 0.576,3.456 0.4267,1.10934 1.024,2.09067 1.792,2.944 0.8107,0.85334 1.7707,1.536 2.88,2.048 1.1093,0.512 2.368,0.768 3.776,0.768 1.408,0 2.6667,-0.256 3.776,-0.768 1.1093,-0.512 2.048,-1.19466 2.816,-2.048 0.8107,-0.85333 1.408,-1.83466 1.792,-2.944 0.4267,-1.10932 0.64,-2.26132 0.64,-3.456" />
          <path
             inkscape:connector-curvature="0"
             id="path5258"
             style="font-weight:900;line-height:125%;font-family:Avenir;-inkscape-font-specification:Avenir Heavy"
             d="m -1029.7226,837.01775 c 0,-2.43199 0.4267,-4.62932 1.28,-6.592 0.896,-2.00531 2.0907,-3.71198 3.584,-5.12 1.4933,-1.40797 3.264,-2.49597 5.312,-3.264 2.048,-0.76797 4.224,-1.15197 6.528,-1.152 2.304,3e-5 4.48,0.38403 6.528,1.152 2.048,0.76803 3.8187,1.85603 5.312,3.264 1.49333,1.40802 2.66666,3.11469 3.52003,5.12 0.89596,1.96268 1.34396,4.16001 1.344,6.592 -4e-5,2.43201 -0.44804,4.65067 -1.344,6.656 -0.85337,1.96267 -2.0267,3.648 -3.52003,5.056 -1.4933,1.408 -3.264,2.496 -5.312,3.264 -2.048,0.768 -4.224,1.152 -6.528,1.152 -2.304,0 -4.48,-0.384 -6.528,-1.152 -2.048,-0.768 -3.8187,-1.856 -5.312,-3.264 -1.4933,-1.408 -2.688,-3.09333 -3.584,-5.056 -0.8533,-2.00533 -1.28,-4.22399 -1.28,-6.656 m 7.68,0 c 0,1.19468 0.192,2.34668 0.576,3.456 0.4267,1.10934 1.024,2.09067 1.792,2.944 0.8107,0.85334 1.7707,1.536 2.88,2.048 1.1093,0.512 2.368,0.768 3.776,0.768 1.408,0 2.6667,-0.256 3.776,-0.768 1.1093,-0.512 2.048,-1.19466 2.816,-2.048 0.8107,-0.85333 1.408,-1.83466 1.792,-2.944 0.4267,-1.10932 0.64,-2.26132 0.64,-3.456 0,-1.19465 -0.2133,-2.34665 -0.64,-3.456 -0.384,-1.10932 -0.9813,-2.09065 -1.792,-2.944 -0.768,-0.85331 -1.7067,-1.53598 -2.816,-2.048 -1.1093,-0.51198 -2.368,-0.76798 -3.776,-0.768 -1.408,2e-5 -2.6667,0.25602 -3.776,0.768 -1.1093,0.51202 -2.0693,1.19469 -2.88,2.048 -0.768,0.85335 -1.3653,1.83468 -1.792,2.944 -0.384,1.10935 -0.576,2.26135 -0.576,3.456" />
          <path
             inkscape:connector-curvature="0"
             id="path5260"
             style="font-weight:900;line-height:125%;font-family:Avenir;-inkscape-font-specification:Avenir Heavy"
             d="m -990.72257,837.01775 c -10e-6,-2.43199 0.42666,-4.62932 1.28,-6.592 0.89599,-2.00531 2.09066,-3.71198 3.584,-5.12 1.49332,-1.40797 3.26398,-2.49597 5.312,-3.264 2.04798,-0.76797 4.22398,-1.15197 6.528,-1.152 2.30397,3e-5 4.47997,0.38403 6.528,1.152 2.04797,0.76803 3.81863,1.85603 5.312,3.264 1.4933,1.40802 2.66663,3.11469 3.52,5.12 0.89596,1.96268 1.34396,4.16001 1.344,6.592 -4e-5,2.43201 -0.44804,4.65067 -1.344,6.656 -0.85337,1.96267 -2.0267,3.648 -3.52,5.056 -1.49337,1.408 -3.26403,2.496 -5.312,3.264 -2.04803,0.768 -4.22403,1.152 -6.528,1.152 -2.30402,0 -4.48002,-0.384 -6.528,-1.152 -2.04802,-0.768 -3.81868,-1.856 -5.312,-3.264 -1.49334,-1.408 -2.68801,-3.09333 -3.584,-5.056 -0.85334,-2.00533 -1.28001,-4.22399 -1.28,-6.656 m 7.68,0 c -1e-5,1.19468 0.19199,2.34668 0.576,3.456 0.42665,1.10934 1.02398,2.09067 1.792,2.944 0.81065,0.85334 1.77065,1.536 2.88,2.048 1.10931,0.512 2.36798,0.768 3.776,0.768 1.40797,0 2.66664,-0.256 3.776,-0.768 1.1093,-0.512 2.04797,-1.19466 2.816,-2.048 0.81064,-0.85333 1.40797,-1.83466 1.792,-2.944 0.42663,-1.10932 0.63997,-2.26132 0.64,-3.456 -3e-5,-1.19465 -0.21337,-2.34665 -0.64,-3.456 -0.38403,-1.10932 -0.98136,-2.09065 -1.792,-2.944 -0.76803,-0.85331 -1.7067,-1.53598 -2.816,-2.048 -1.10936,-0.51198 -2.36803,-0.76798 -3.776,-0.768 -1.40802,2e-5 -2.66669,0.25602 -3.776,0.768 -1.10935,0.51202 -2.06935,1.19469 -2.88,2.048 -0.76802,0.85335 -1.36535,1.83468 -1.792,2.944 -0.38401,1.10935 -0.57601,2.26135 -0.576,3.456" />
          <path
             inkscape:connector-curvature="0"
             id="path5262"
             style="font-weight:900;line-height:125%;font-family:Avenir;-inkscape-font-specification:Avenir Heavy"
             d="m -950.18657,803.99375 7.68,0 0,30.4 11.84,-12.736 9.856,0 -13.184,13.952 14.016,16.768 -10.176,0 -12.224,-15.68 -0.128,0 0,15.68 -7.68,0 0,-48.384" />
        </g>
      </g>
      <g
         id="g4583">
        <g
           id="g4598">
          <path
             sodipodi:nodetypes="sccssss"
             inkscape:connector-curvature="0"
             id="rect4141-8-8"
             d="m -1817.846,927.40172 170,0 c 0,-0.21447 0,-180 0,-180 l -170,0 c -2.77,0 -5,2.23 -5,5 l 0,170 c 0,2.77 2.23,5 5,5 z"
             style="color:#000000;fill:#3b5998;fill-opacity:1;fill-rule:nonzero;stroke:none;stroke-width:2;marker:none;visibility:visible;display:inline;overflow:visible;enable-background:accumulate" />
          <path
             id="path62-1"
             style="fill:#ffffff;fill-opacity:1;fill-rule:nonzero;stroke:none"
             d="m -1728.2773,883.38574 0,-41.95079 13.9799,0 2.093,-16.34926 -16.0729,0 0,-10.43828 c 0,-4.73349 1.3048,-7.9591 8.0439,-7.9591 l 8.5952,-0.004 0,-14.6226 c -1.4869,-0.19885 -6.5888,-0.64411 -12.5244,-0.64411 -12.3923,0 -20.8758,7.61897 -20.8758,21.61122 l 0,12.05697 -14.0154,0 0,16.34926 14.0154,0 0,41.95079 16.7611,0 z"
             inkscape:connector-curvature="0" />
          <path
             sodipodi:nodetypes="cc"
             inkscape:connector-curvature="0"
             id="path4263-1"
             d="m -1648.8425,926.40521 0,-178.00698"
             style="fill:none;stroke:#000000;stroke-width:1.99300146;stroke-linecap:square;stroke-linejoin:miter;stroke-miterlimit:4;stroke-opacity:0.15686275;stroke-dasharray:none" />
        </g>
      </g>
    </g>
  </g>
</svg>
