<?xml version="1.0" encoding="UTF-8" standalone="no"?>
<!-- Created with Inkscape (http://www.inkscape.org/) -->

<svg
   xmlns:dc="http://purl.org/dc/elements/1.1/"
   xmlns:cc="http://creativecommons.org/ns#"
   xmlns:rdf="http://www.w3.org/1999/02/22-rdf-syntax-ns#"
   xmlns:svg="http://www.w3.org/2000/svg"
   xmlns="http://www.w3.org/2000/svg"
   xmlns:sodipodi="http://sodipodi.sourceforge.net/DTD/sodipodi-0.dtd"
   xmlns:inkscape="http://www.inkscape.org/namespaces/inkscape"
   width="264"
   height="34.285934"
   id="svg4115"
   version="1.1"
   inkscape:version="0.48.2 r9819"
   sodipodi:docname="map_markers.svg"
   inkscape:export-filename="/Users/jen/src/yumhacker/app/assets/images/map_markers.png"
   inkscape:export-xdpi="90"
   inkscape:export-ydpi="90">
  <defs
     id="defs4117" />
  <sodipodi:namedview
     id="base"
     pagecolor="#ffffff"
     bordercolor="#666666"
     borderopacity="1.0"
     inkscape:pageopacity="0.0"
     inkscape:pageshadow="2"
     inkscape:zoom="2.8284272"
     inkscape:cx="131.8457"
     inkscape:cy="45.139291"
     inkscape:document-units="px"
     inkscape:current-layer="layer1"
     showgrid="false"
     inkscape:window-width="1440"
     inkscape:window-height="1006"
     inkscape:window-x="2275"
     inkscape:window-y="24"
     inkscape:window-maximized="0"
     fit-margin-top="0"
     fit-margin-left="0"
     fit-margin-right="0"
     fit-margin-bottom="0"
     inkscape:snap-global="false" />
  <metadata
     id="metadata4120">
    <rdf:RDF>
      <cc:Work
         rdf:about="">
        <dc:format>image/svg+xml</dc:format>
        <dc:type
           rdf:resource="http://purl.org/dc/dcmitype/StillImage" />
        <dc:title></dc:title>
      </cc:Work>
    </rdf:RDF>
  </metadata>
  <g
     inkscape:label="Layer 1"
     inkscape:groupmode="layer"
     id="layer1"
     transform="translate(4.4e-7,-1018.0763)">
    <g
       id="g3827">
      <g
         transform="translate(0,2.464e-5)"
         id="g3876">
        <path
           style="color:#000000;fill:#e91367;fill-opacity:1;fill-rule:nonzero;stroke:none;stroke-width:0.47499999;marker:none;visibility:visible;display:inline;overflow:visible;enable-background:accumulate"
           d="M 11.999998,1018.0763 C 6.3432744,1018.0608 -4.4e-7,1023.4909 -4.4e-7,1030.1698 c 0,6.6789 7.84222324,13.5761 11.99999844,22.1924 4.157776,-8.6163 11.999999,-15.5135 11.999999,-22.1924 0,-6.6789 -6.343275,-12.109 -11.999999,-12.0935 z"
           id="rect3069"
           inkscape:connector-curvature="0" />
        <text
           xml:space="preserve"
           style="font-size:18.46529388px;font-style:normal;font-variant:normal;font-weight:bold;font-stretch:normal;line-height:125%;letter-spacing:0px;word-spacing:0px;fill:#ffffff;fill-opacity:1;stroke:none;font-family:Avenir Next;-inkscape-font-specification:Avenir Next Bold"
           x="6.0608478"
           y="1033.3596"
           id="text3849"
           sodipodi:linespacing="125%"
           transform="scale(0.99612494,1.0038901)"><tspan
             sodipodi:role="line"
             id="tspan3851"
             x="6.0608478"
             y="1033.3596">1</tspan></text>
        <path
           style="color:#000000;fill:#e91367;fill-opacity:1;fill-rule:nonzero;stroke:none;stroke-width:0.47499999;marker:none;visibility:visible;display:inline;overflow:visible;enable-background:accumulate"
           d="M 35.999999,1018.0763 C 30.343275,1018.0608 24,1023.4909 24,1030.1698 c 0,6.6789 7.842223,13.5761 11.999999,22.1924 4.157775,-8.6163 11.999999,-15.5135 11.999999,-22.1924 0,-6.6789 -6.343275,-12.109 -11.999999,-12.0935 z"
           id="rect3069-1"
           inkscape:connector-curvature="0" />
        <text
           xml:space="preserve"
           style="font-size:18.46529388px;font-style:normal;font-variant:normal;font-weight:bold;font-stretch:normal;line-height:125%;letter-spacing:0px;word-spacing:0px;fill:#ffffff;fill-opacity:1;stroke:none;font-family:Avenir Next;-inkscape-font-specification:Avenir Next Bold"
           x="30.29578"
           y="1033.3596"
           id="text3849-0"
           sodipodi:linespacing="125%"
           transform="scale(0.99612494,1.0038901)"><tspan
             sodipodi:role="line"
             id="tspan3851-4"
             x="30.29578"
             y="1033.3596">2</tspan></text>
        <path
           style="color:#000000;fill:#e91367;fill-opacity:1;fill-rule:nonzero;stroke:none;stroke-width:0.47499999;marker:none;visibility:visible;display:inline;overflow:visible;enable-background:accumulate"
           d="m 60,1018.0763 c -5.656724,-0.015 -11.999999,5.4146 -11.999999,12.0935 0,6.6789 7.842223,13.5761 11.999999,22.1924 4.157776,-8.6163 12.000002,-15.5135 12.000002,-22.1924 0,-6.6789 -6.343277,-12.109 -12.000002,-12.0935 z"
           id="rect3069-17"
           inkscape:connector-curvature="0" />
        <text
           xml:space="preserve"
           style="font-size:18.46529388px;font-style:normal;font-variant:normal;font-weight:bold;font-stretch:normal;line-height:125%;letter-spacing:0px;word-spacing:0px;fill:#ffffff;fill-opacity:1;stroke:none;font-family:Avenir Next;-inkscape-font-specification:Avenir Next Bold"
           x="54.555332"
           y="1033.3596"
           id="text3849-4"
           sodipodi:linespacing="125%"
           transform="scale(0.99612494,1.0038901)"><tspan
             sodipodi:role="line"
             id="tspan3851-9"
             x="54.555332"
             y="1033.3596">3</tspan></text>
        <path
           style="color:#000000;fill:#e91367;fill-opacity:1;fill-rule:nonzero;stroke:none;stroke-width:0.47499999;marker:none;visibility:visible;display:inline;overflow:visible;enable-background:accumulate"
           d="m 84.000008,1018.0763 c -5.656725,-0.015 -12.000002,5.4146 -12.000002,12.0935 0,6.6789 7.842226,13.5761 12.000002,22.1924 4.157773,-8.6163 11.999996,-15.5135 11.999996,-22.1924 0,-6.6789 -6.343277,-12.109 -11.999996,-12.0935 z"
           id="rect3069-9"
           inkscape:connector-curvature="0" />
        <text
           xml:space="preserve"
           style="font-size:18.46529388px;font-style:normal;font-variant:normal;font-weight:bold;font-stretch:normal;line-height:125%;letter-spacing:0px;word-spacing:0px;fill:#ffffff;fill-opacity:1;stroke:none;font-family:Avenir Next;-inkscape-font-specification:Avenir Next Bold"
           x="78.44558"
           y="1033.3596"
           id="text3849-1"
           sodipodi:linespacing="125%"
           transform="scale(0.99612494,1.0038901)"><tspan
             sodipodi:role="line"
             id="tspan3851-0"
             x="78.44558"
             y="1033.3596">4</tspan></text>
        <path
           inkscape:connector-curvature="0"
           id="rect3069-11"
           d="m 108.00001,1018.0763 c -5.65672,-0.015 -11.999997,5.4146 -11.999997,12.0935 0,6.6789 7.842227,13.5761 11.999997,22.1924 4.15777,-8.6163 12,-15.5135 12,-22.1924 0,-6.6789 -6.34328,-12.109 -12,-12.0935 z"
           style="color:#000000;fill:#e91367;fill-opacity:1;fill-rule:nonzero;stroke:none;stroke-width:0.47499999;marker:none;visibility:visible;display:inline;overflow:visible;enable-background:accumulate" />
        <text
           sodipodi:linespacing="125%"
           id="text3849-8"
           y="1033.3596"
           x="102.67744"
           style="font-size:18.46529388px;font-style:normal;font-variant:normal;font-weight:bold;font-stretch:normal;line-height:125%;letter-spacing:0px;word-spacing:0px;fill:#ffffff;fill-opacity:1;stroke:none;font-family:Avenir Next;-inkscape-font-specification:Avenir Next Bold"
           xml:space="preserve"
           transform="scale(0.99612494,1.0038901)"><tspan
             y="1033.3596"
             x="102.67744"
             sodipodi:role="line"
             id="tspan4071">5</tspan></text>
        <path
           inkscape:connector-curvature="0"
           id="rect3069-5"
           d="m 132.00001,1018.0763 c -5.65673,-0.015 -12,5.4146 -12,12.0935 0,6.6789 7.84222,13.5761 12,22.1924 4.15776,-8.6163 12,-15.5135 12,-22.1924 0,-6.6789 -6.34328,-12.109 -12,-12.0935 z"
           style="color:#000000;fill:#e91367;fill-opacity:1;fill-rule:nonzero;stroke:none;stroke-width:0.47499999;marker:none;visibility:visible;display:inline;overflow:visible;enable-background:accumulate" />
        <text
           sodipodi:linespacing="125%"
           id="text3849-2"
           y="1033.3596"
           x="126.56769"
           style="font-size:18.46529388px;font-style:normal;font-variant:normal;font-weight:bold;font-stretch:normal;line-height:125%;letter-spacing:0px;word-spacing:0px;fill:#ffffff;fill-opacity:1;stroke:none;font-family:Avenir Next;-inkscape-font-specification:Avenir Next Bold"
           xml:space="preserve"
           transform="scale(0.99612494,1.0038901)"><tspan
             y="1033.3596"
             x="126.56769"
             sodipodi:role="line"
             id="tspan4088">6</tspan></text>
        <path
           style="color:#000000;fill:#e91367;fill-opacity:1;fill-rule:nonzero;stroke:none;stroke-width:0.47499999;marker:none;visibility:visible;display:inline;overflow:visible;enable-background:accumulate"
           d="m 156.00001,1018.0763 c -5.65673,-0.015 -12,5.4146 -12,12.0935 0,6.6789 7.84222,13.5761 12,22.1924 4.15777,-8.6163 12,-15.5135 12,-22.1924 0,-6.6789 -6.34328,-12.109 -12,-12.0935 z"
           id="rect3069-6"
           inkscape:connector-curvature="0" />
        <text
           xml:space="preserve"
           style="font-size:18.46529388px;font-style:normal;font-variant:normal;font-weight:bold;font-stretch:normal;line-height:125%;letter-spacing:0px;word-spacing:0px;fill:#ffffff;fill-opacity:1;stroke:none;font-family:Avenir Next;-inkscape-font-specification:Avenir Next Bold"
           x="150.69797"
           y="1033.3596"
           id="text3849-84"
           sodipodi:linespacing="125%"
           transform="scale(0.99612494,1.0038901)"><tspan
             sodipodi:role="line"
             id="tspan3851-8"
             x="150.69797"
             y="1033.3596">7</tspan></text>
        <path
           style="color:#000000;fill:#e91367;fill-opacity:1;fill-rule:nonzero;stroke:none;stroke-width:0.47499999;marker:none;visibility:visible;display:inline;overflow:visible;enable-background:accumulate"
           d="m 180.00002,1018.0763 c -5.65673,-0.015 -12.00001,5.4146 -12.00001,12.0935 0,6.6789 7.84223,13.5761 12.00001,22.1924 4.15777,-8.6163 11.99999,-15.5135 11.99999,-22.1924 0,-6.6789 -6.34328,-12.109 -11.99999,-12.0935 z"
           id="rect3069-6-4"
           inkscape:connector-curvature="0" />
        <text
           xml:space="preserve"
           style="font-size:18.46529388px;font-style:normal;font-variant:normal;font-weight:bold;font-stretch:normal;line-height:125%;letter-spacing:0px;word-spacing:0px;fill:#ffffff;fill-opacity:1;stroke:none;font-family:Avenir Next;-inkscape-font-specification:Avenir Next Bold"
           x="174.73595"
           y="1033.3596"
           id="text3849-84-0"
           sodipodi:linespacing="125%"
           transform="scale(0.99612494,1.0038901)"><tspan
             sodipodi:role="line"
             id="tspan3851-8-7"
             x="174.73595"
             y="1033.3596">8</tspan></text>
        <path
           style="color:#000000;fill:#e91367;fill-opacity:1;fill-rule:nonzero;stroke:none;stroke-width:0.47499999;marker:none;visibility:visible;display:inline;overflow:visible;enable-background:accumulate"
           d="m 204.00001,1018.0763 c -5.65672,-0.015 -12,5.4146 -12,12.0935 0,6.6789 7.84222,13.5761 12,22.1924 4.15777,-8.6163 11.99999,-15.5135 11.99999,-22.1924 0,-6.6789 -6.34328,-12.109 -11.99999,-12.0935 z"
           id="rect3069-6-4-1"
           inkscape:connector-curvature="0" />
        <text
           xml:space="preserve"
           style="font-size:18.46529388px;font-style:normal;font-variant:normal;font-weight:bold;font-stretch:normal;line-height:125%;letter-spacing:0px;word-spacing:0px;fill:#ffffff;fill-opacity:1;stroke:none;font-family:Avenir Next;-inkscape-font-specification:Avenir Next Bold"
           x="198.82933"
           y="1033.3596"
           id="text3849-84-0-9"
           sodipodi:linespacing="125%"
           transform="scale(0.99612494,1.0038901)"><tspan
             sodipodi:role="line"
             id="tspan3851-8-7-1"
             x="198.82933"
             y="1033.3596">9</tspan></text>
        <path
           inkscape:connector-curvature="0"
           id="rect3069-6-4-3"
           d="m 228.00001,1018.0763 c -5.65672,-0.015 -12,5.4146 -12,12.0935 0,6.6789 7.84222,13.5761 12,22.1924 4.15777,-8.6163 12,-15.5135 12,-22.1924 0,-6.6789 -6.34328,-12.109 -12,-12.0935 z"
           style="color:#000000;fill:#e91367;fill-opacity:1;fill-rule:nonzero;stroke:none;stroke-width:0.47499999;marker:none;visibility:visible;display:inline;overflow:visible;enable-background:accumulate" />
        <text
           sodipodi:linespacing="125%"
           id="text3849-84-0-96"
           y="1033.3596"
           x="217.31093"
           style="font-size:18.46529388px;font-style:normal;font-variant:normal;font-weight:bold;font-stretch:normal;line-height:125%;letter-spacing:-1.53877449px;word-spacing:0px;fill:#ffffff;fill-opacity:1;stroke:none;font-family:Avenir Next;-inkscape-font-specification:Avenir Next Bold"
           xml:space="preserve"
           transform="scale(0.99612494,1.0038901)"><tspan
             y="1033.3596"
             x="217.31093"
             id="tspan3851-8-7-5"
             sodipodi:role="line">10</tspan></text>
      </g>
      <g
         id="g3823">
        <path
           inkscape:connector-curvature="0"
           id="rect3069-6-4-3-9"
           d="m 252.00001,1018.0763 c -5.65672,-0.015 -12,5.4146 -12,12.0935 0,6.6789 7.84222,13.5761 12,22.1924 4.15777,-8.6163 12,-15.5135 12,-22.1924 0,-6.6789 -6.34328,-12.109 -12,-12.0935 z"
           style="color:#000000;fill:#e91367;fill-opacity:1;fill-rule:nonzero;stroke:none;stroke-width:0.47499999;marker:none;visibility:visible;display:inline;overflow:visible;enable-background:accumulate" />
        <path
           sodipodi:type="arc"
           style="color:#000000;fill:#ffffff;fill-opacity:1;fill-rule:nonzero;stroke:none;stroke-width:20;marker:none;visibility:visible;display:inline;overflow:visible;enable-background:accumulate"
           id="path3789"
           sodipodi:cx="-5.8336306"
           sodipodi:cy="-56.223732"
           sodipodi:rx="35.88567"
           sodipodi:ry="35.001785"
           d="m 30.052039,-56.223732 a 35.88567,35.001785 0 1 1 -71.771339,0 35.88567,35.001785 0 1 1 71.771339,0 z"
           transform="matrix(0.15326452,0,0,0.15713484,252.8941,1039.5539)" />
      </g>
    </g>
  </g>
</svg>
