<?xml version="1.0" encoding="UTF-8" standalone="no"?>
<!-- Created with Inkscape (http://www.inkscape.org/) -->

<svg
   xmlns:dc="http://purl.org/dc/elements/1.1/"
   xmlns:cc="http://creativecommons.org/ns#"
   xmlns:rdf="http://www.w3.org/1999/02/22-rdf-syntax-ns#"
   xmlns:svg="http://www.w3.org/2000/svg"
   xmlns="http://www.w3.org/2000/svg"
   xmlns:sodipodi="http://sodipodi.sourceforge.net/DTD/sodipodi-0.dtd"
   xmlns:inkscape="http://www.inkscape.org/namespaces/inkscape"
   width="30.1"
   height="30.1"
   id="svg3036"
   version="1.1"
   inkscape:version="0.48.2 r9819"
   sodipodi:docname="search_icon.svg">
  <defs
     id="defs3038" />
  <sodipodi:namedview
     id="base"
     pagecolor="#ffffff"
     bordercolor="#666666"
     borderopacity="1.0"
     inkscape:pageopacity="0.0"
     inkscape:pageshadow="2"
     inkscape:zoom="11.313708"
     inkscape:cx="32.499903"
     inkscape:cy="11.001552"
     inkscape:document-units="px"
     inkscape:current-layer="layer1"
     showgrid="false"
     inkscape:window-width="1280"
     inkscape:window-height="756"
     inkscape:window-x="153"
     inkscape:window-y="0"
     inkscape:window-maximized="0"
     fit-margin-top="0"
     fit-margin-left="0"
     fit-margin-right="0"
     fit-margin-bottom="0"
     borderlayer="true" />
  <metadata
     id="metadata3041">
    <rdf:RDF>
      <cc:Work
         rdf:about="">
        <dc:format>image/svg+xml</dc:format>
        <dc:type
           rdf:resource="http://purl.org/dc/dcmitype/StillImage" />
        <dc:title />
      </cc:Work>
    </rdf:RDF>
  </metadata>
  <g
     inkscape:label="Layer 1"
     inkscape:groupmode="layer"
     id="layer1"
     transform="translate(-203.69409,-619.7392)">
    <path
       id="path4074-8"
       style="color:#000000;fill:#fffafa;fill-opacity:1;fill-rule:nonzero;stroke:none;stroke-width:68;marker:none;visibility:visible;display:inline;overflow:visible;enable-background:accumulate"
       d="m 207.2695,623.21271 c -4.63272,4.63273 -4.63437,12.14396 -0.002,16.77669 4.63274,4.63272 12.14561,4.63272 16.77834,0 4.63273,-4.63273 4.63108,-12.14396 -0.002,-16.77669 -4.63273,-4.63272 -12.14231,-4.63272 -16.77504,0 z m 3.25035,3.25035 c 2.83739,-2.83738 7.43696,-2.83738 10.27434,0 2.83738,2.8374 2.83903,7.43861 0.002,10.27599 -2.83738,2.83739 -7.44026,2.83739 -10.27764,0 -2.83739,-2.83738 -2.83574,-7.43859 0.002,-10.27599 z m 10.99124,14.66856 7.98606,7.98607 c 0.41575,0.42948 1.03312,0.65691 1.67494,0.61702 0.64184,-0.0399 1.29991,-0.34659 1.7854,-0.83208 0.4855,-0.48548 0.7922,-1.14358 0.83208,-1.7854 0.0399,-0.64182 -0.18754,-1.2592 -0.61702,-1.67494 l -7.98606,-7.98608 c 0.0723,-0.0226 -3.6754,3.67541 -3.6754,3.67541 z"
       inkscape:connector-curvature="0"
       inkscape:export-filename="/Users/jen/Design/yumhacker/graphics/search_icon.png"
       inkscape:export-xdpi="90"
       inkscape:export-ydpi="90" />
  </g>
</svg>
