<?xml version="1.0" encoding="UTF-8" standalone="no"?>
<!-- Created with Inkscape (http://www.inkscape.org/) -->

<svg
   xmlns:dc="http://purl.org/dc/elements/1.1/"
   xmlns:cc="http://creativecommons.org/ns#"
   xmlns:rdf="http://www.w3.org/1999/02/22-rdf-syntax-ns#"
   xmlns:svg="http://www.w3.org/2000/svg"
   xmlns="http://www.w3.org/2000/svg"
   xmlns:sodipodi="http://sodipodi.sourceforge.net/DTD/sodipodi-0.dtd"
   xmlns:inkscape="http://www.inkscape.org/namespaces/inkscape"
   width="242.49997"
   height="45.001133"
   id="svg4229"
   version="1.1"
   inkscape:version="0.48.2 r9819"
   sodipodi:docname="New document 5">
  <defs
     id="defs4231" />
  <sodipodi:namedview
     id="base"
     pagecolor="#ffffff"
     bordercolor="#666666"
     borderopacity="1.0"
     inkscape:pageopacity="0.0"
     inkscape:pageshadow="2"
     inkscape:zoom="1.979899"
     inkscape:cx="191.92828"
     inkscape:cy="-50.087825"
     inkscape:document-units="px"
     inkscape:current-layer="layer1"
     showgrid="false"
     fit-margin-top="0"
     fit-margin-left="0"
     fit-margin-right="0"
     fit-margin-bottom="0"
     inkscape:window-width="982"
     inkscape:window-height="851"
     inkscape:window-x="2678"
     inkscape:window-y="101"
     inkscape:window-maximized="0" />
  <metadata
     id="metadata4234">
    <rdf:RDF>
      <cc:Work
         rdf:about="">
        <dc:format>image/svg+xml</dc:format>
        <dc:type
           rdf:resource="http://purl.org/dc/dcmitype/StillImage" />
        <dc:title></dc:title>
      </cc:Work>
    </rdf:RDF>
  </metadata>
  <g
     inkscape:label="Layer 1"
     inkscape:groupmode="layer"
     id="layer1"
     transform="translate(-47.321446,-364.14789)">
    <g
       transform="matrix(0.24999997,0,0,0.24999997,22.142874,178.91452)"
       id="g4160">
      <g
         transform="translate(1923.5603,-6.4681084)"
         id="g4565-2-3">
        <path
           style="color:#000000;fill:#3b5998;fill-opacity:1;fill-rule:nonzero;stroke:none;stroke-width:2;marker:none;visibility:visible;display:inline;overflow:visible;enable-background:accumulate"
           d="m -1647.846,747.40169 789.99998,0 c 2.77,0 5,2.23 5,5 l 0,170 c 0,2.77 -2.23,5 -5,5 l -789.99998,0 c 0.081,0.11333 0,-180 0,-180 z"
           id="rect4230-3-1-8"
           inkscape:connector-curvature="0"
           sodipodi:nodetypes="csssscc" />
        <path
           style="fill:none;stroke:#ffffff;stroke-width:1.99331927;stroke-linecap:square;stroke-linejoin:miter;stroke-miterlimit:4;stroke-opacity:0.19607843;stroke-dasharray:none"
           d="m -1646.8494,926.40508 0,-178.00672"
           id="path4263-4-2-2-0"
           inkscape:connector-curvature="0"
           sodipodi:nodetypes="cc" />
      </g>
      <g
         id="text3335"
         style="font-size:64.00000763px;font-style:normal;font-variant:normal;font-weight:normal;font-stretch:normal;text-align:start;line-height:125%;letter-spacing:0px;word-spacing:0px;writing-mode:lr-tb;text-anchor:start;fill:#ffffff;fill-opacity:1;stroke:none;font-family:Avenir;-inkscape-font-specification:Avenir"
         transform="translate(-10.000001,0)">
        <path
           inkscape:connector-curvature="0"
           id="path4108"
           d="m 461.12075,811.70169 c -2.00536,-2.94396 -4.92803,-4.41596 -8.768,-4.416 -1.19469,4e-5 -2.36802,0.17071 -3.52001,0.512 -1.15201,0.29871 -2.19734,0.78938 -3.136,1.472 -0.89601,0.64004 -1.62134,1.49337 -2.176,2.56 -0.55467,1.02404 -0.832,2.24004 -0.832,3.648 0,2.04803 0.57599,3.64803 1.728,4.8 1.15199,1.10936 2.58132,2.0267 4.288,2.752 1.70665,0.72536 3.56265,1.38669 5.56801,1.984 2.04797,0.55469 3.9253,1.32269 5.632,2.304 1.70664,0.93869 3.13597,2.19736 4.288,3.776 1.15197,1.57869 1.72796,3.73335 1.728,6.464 -4e-5,2.04801 -0.44803,3.90401 -1.344,5.56801 -0.85337,1.62133 -2.00537,2.98667 -3.456,4.096 -1.40803,1.10933 -3.00803,1.96266 -4.8,2.56 -1.74936,0.59733 -3.52002,0.89599 -5.312,0.896 -2.77335,-10e-6 -5.41868,-0.512 -7.93601,-1.536 -2.47467,-1.06667 -4.58667,-2.79467 -6.336,-5.184 l 4.16,-3.00801 c 0.98133,1.66401 2.34666,3.00801 4.096,4.03201 1.74932,0.98133 3.81866,1.472 6.20801,1.472 1.15198,0 2.30398,-0.17067 3.456,-0.512 1.15197,-0.384 2.17597,-0.91733 3.072,-1.6 0.93864,-0.72533 1.70664,-1.6 2.304,-2.62401 0.5973,-1.02399 0.89597,-2.19732 0.896,-3.52 -3e-5,-1.57865 -0.34136,-2.87998 -1.024,-3.904 -0.64003,-1.06665 -1.5147,-1.94131 -2.624,-2.624 -1.06669,-0.72531 -2.30403,-1.32264 -3.712,-1.792 -1.36536,-0.46931 -2.79469,-0.93864 -4.288,-1.408 -1.45069,-0.46931 -2.88002,-1.00264 -4.28801,-1.6 -1.36534,-0.59731 -2.60267,-1.34397 -3.712,-2.24 -1.06667,-0.93864 -1.94134,-2.09064 -2.624,-3.456 -0.64,-1.40797 -0.96,-3.1573 -0.96,-5.248 0,-2.17596 0.40533,-4.07463 1.216,-5.696 0.85333,-1.62129 1.96266,-2.96529 3.328,-4.032 1.40799,-1.06662 2.98666,-1.85595 4.736,-2.368 1.74932,-0.51195 3.54132,-0.76795 5.37601,-0.768 2.55997,5e-5 4.88531,0.40538 6.976,1.216 2.09064,0.81071 4.03197,2.24004 5.824,4.288 l -4.032,3.136" />
        <path
           inkscape:connector-curvature="0"
           id="path4110"
           d="m 497.06575,832.24569 c -3e-5,-2.85864 -0.85336,-5.16264 -2.56,-6.912 -1.70669,-1.79197 -4.09602,-2.68797 -7.168,-2.688 -1.36535,3e-5 -2.68802,0.27736 -3.968,0.832 -1.28001,0.51203 -2.41068,1.21603 -3.392,2.112 -0.93868,0.89603 -1.70668,1.92003 -2.304,3.072 -0.55468,1.15202 -0.83201,2.34669 -0.832,3.584 l 20.224,0 m -20.352,3.456 c 0.12799,1.49335 0.49066,2.90135 1.088,4.224 0.59732,1.32268 1.38665,2.47468 2.368,3.45601 0.98132,0.93867 2.11199,1.68533 3.392,2.24 1.27998,0.55467 2.66665,0.832 4.16,0.832 2.26131,0 4.20264,-0.512 5.824,-1.536 1.66397,-1.06667 2.92264,-2.28266 3.776,-3.64801 l 3.264,2.68801 c -1.79203,2.26133 -3.77603,3.88266 -5.952,4.864 -2.13336,0.98133 -4.43735,1.472 -6.912,1.472 -2.21868,0 -4.28802,-0.384 -6.208,-1.152 -1.87735,-0.81067 -3.49868,-1.92 -4.864,-3.328 -1.36534,-1.408 -2.45334,-3.072 -3.264,-4.99201 -0.76801,-1.91998 -1.15201,-4.01065 -1.152,-6.272 -10e-6,-2.26131 0.38399,-4.35198 1.152,-6.272 0.76799,-1.91997 1.83466,-3.58397 3.2,-4.992 1.36532,-1.40797 2.96532,-2.49597 4.8,-3.264 1.83465,-0.81063 3.81865,-1.21597 5.952,-1.216 2.26131,3e-5 4.28798,0.40537 6.08,1.216 1.79197,0.8107 3.28531,1.8987 4.48,3.264 1.2373,1.32269 2.17597,2.90136 2.816,4.736 0.63997,1.79202 0.95997,3.71202 0.96,5.76 l 0,1.92 -24.96,0" />
        <path
           inkscape:connector-curvature="0"
           id="path4112"
           d="m 526.41875,834.61369 c -1.06668,2e-5 -2.41068,0.064 -4.032,0.192 -1.57868,0.0853 -3.11468,0.34135 -4.608,0.768 -1.45068,0.38402 -2.70934,1.00268 -3.776,1.856 -1.02401,0.85335 -1.53601,2.02668 -1.536,3.52 -1e-5,0.98135 0.19199,1.83468 0.576,2.56001 0.42666,0.68267 0.98133,1.25867 1.664,1.728 0.68266,0.42667 1.42932,0.74667 2.24,0.96 0.85332,0.17067 1.70666,0.256 2.56,0.256 1.53599,0 2.85865,-0.256 3.968,-0.768 1.15198,-0.512 2.11198,-1.19467 2.88,-2.048 0.76798,-0.896 1.32265,-1.92 1.664,-3.07201 0.38398,-1.19465 0.57598,-2.45332 0.576,-3.776 l 0,-2.176 -2.176,0 m 2.176,-3.456 0,-0.768 c -2e-5,-5.16264 -2.56002,-7.74397 -7.68,-7.744 -3.49868,3e-5 -6.54934,1.17336 -9.152,3.52 l -2.56,-3.008 c 2.81599,-2.9013 7.03999,-4.35197 12.672,-4.352 1.45065,3e-5 2.83732,0.21337 4.16,0.64 1.36531,0.4267 2.53865,1.08803 3.52,1.984 0.98131,0.85336 1.77064,1.94136 2.368,3.264 0.59731,1.32269 0.89598,2.90136 0.896,4.736 l 0,13.376 c -2e-5,1.15201 0.0426,2.36801 0.128,3.64801 0.12798,1.23733 0.25598,2.26133 0.384,3.072 l -4.096,0 c -0.12802,-0.72534 -0.23469,-1.51467 -0.32,-2.368 -0.0427,-0.85333 -0.064,-1.68533 -0.064,-2.496 l -0.128,0 c -1.23735,2.00533 -2.70935,3.456 -4.416,4.352 -1.66401,0.85333 -3.71201,1.28 -6.144,1.28 -1.32268,0 -2.60268,-0.192 -3.84,-0.576 -1.23734,-0.34134 -2.34667,-0.87467 -3.328,-1.6 -0.93867,-0.768 -1.70667,-1.68533 -2.304,-2.752 -0.55467,-1.10933 -0.832,-2.38933 -0.832,-3.84001 0,-2.43199 0.61866,-4.33065 1.856,-5.696 1.28,-1.40798 2.85866,-2.45331 4.736,-3.136 1.91999,-0.68265 3.94666,-1.10931 6.08,-1.28 2.17599,-0.17064 4.15998,-0.25598 5.952,-0.256 l 2.112,0" />
        <path
           inkscape:connector-curvature="0"
           id="path4114"
           d="m 543.09276,828.91769 c -10e-6,-1.32264 -0.0427,-2.66664 -0.128,-4.032 -0.0427,-1.3653 -0.0853,-3.13597 -0.128,-5.312 l 4.16,0 0,5.568 0.128,0 c 0.29866,-0.81064 0.72532,-1.57864 1.28,-2.304 0.55466,-0.76797 1.21599,-1.45064 1.984,-2.048 0.81065,-0.5973 1.72799,-1.06663 2.752,-1.408 1.06665,-0.38397 2.26132,-0.57597 3.584,-0.576 1.19465,3e-5 2.23998,0.12803 3.136,0.384 l -0.832,4.16 c -0.55469,-0.2133 -1.36535,-0.31997 -2.432,-0.32 -1.62135,3e-5 -3.00802,0.32003 -4.16,0.96 -1.15201,0.59736 -2.11201,1.38669 -2.88,2.368 -0.76801,0.93869 -1.34401,1.96269 -1.728,3.072 -0.34134,1.10936 -0.51201,2.17602 -0.512,3.2 l 0,16.89601 -4.224,0 0,-20.60801" />
        <path
           inkscape:connector-curvature="0"
           id="path4116"
           d="m 584.59376,826.61369 c -0.72536,-1.10931 -1.74936,-2.04797 -3.072,-2.816 -1.28002,-0.76797 -2.75202,-1.15197 -4.416,-1.152 -1.74935,-0.0426 -3.32802,0.2347 -4.736,0.832 -1.36535,0.59736 -2.53868,1.42936 -3.52,2.496 -0.98134,1.06669 -1.72801,2.34669 -2.24,3.84 -0.51201,1.45069 -0.76801,3.02935 -0.768,4.736 -10e-6,1.70668 0.25599,3.30668 0.768,4.8 0.51199,1.45068 1.25866,2.70935 2.24,3.77601 0.98132,1.06667 2.15465,1.89867 3.52,2.496 1.40798,0.59733 2.98665,0.87467 4.736,0.832 1.66398,0 3.13598,-0.384 4.416,-1.152 1.32264,-0.768 2.34664,-1.70667 3.072,-2.81601 l 3.456,2.62401 c -1.49336,1.74933 -3.17869,3.05066 -5.056,3.904 -1.87736,0.81066 -3.84002,1.23733 -5.888,1.28 -2.43202,0.0427 -4.62935,-0.32 -6.592,-1.088 -1.96268,-0.81067 -3.64801,-1.92 -5.056,-3.328 -1.36534,-1.408 -2.41067,-3.072 -3.136,-4.99201 -0.72534,-1.96265 -1.088,-4.07465 -1.088,-6.336 0,-2.26131 0.36266,-4.35198 1.088,-6.272 0.72533,-1.96264 1.77066,-3.64797 3.136,-5.056 1.40799,-1.40797 3.09332,-2.49597 5.056,-3.264 1.96265,-0.81063 4.15998,-1.19463 6.592,-1.152 2.04798,0.0427 4.01064,0.4907 5.888,1.344 1.87731,0.8107 3.56264,2.0907 5.056,3.84 l -3.456,2.624" />
        <path
           inkscape:connector-curvature="0"
           id="path4118"
           d="m 593.64476,801.14169 4.224,0 0,23.232 0.128,0 c 0.46932,-0.81064 1.06666,-1.5573 1.792,-2.24 0.72532,-0.68264 1.53599,-1.25864 2.432,-1.728 0.89599,-0.51197 1.83465,-0.89597 2.816,-1.152 1.02398,-0.29863 2.02665,-0.44797 3.008,-0.448 3.83998,3e-5 6.67731,1.02403 8.512,3.072 1.83464,2.00536 2.75197,4.88536 2.752,8.64 l 0,19.00801 -4.224,0 0,-16.57601 c -2e-5,-3.32798 -0.57602,-5.86664 -1.728,-7.616 -1.15202,-1.79197 -3.28535,-2.68797 -6.4,-2.688 -0.21335,3e-5 -0.81068,0.0854 -1.792,0.256 -0.98135,0.1707 -2.02668,0.64003 -3.136,1.408 -1.06668,0.76803 -2.02668,1.92003 -2.88,3.456 -0.85334,1.53602 -1.28001,3.66936 -1.28,6.4 l 0,15.36001 -4.224,0 0,-48.38401" />
        <path
           inkscape:connector-curvature="0"
           id="path4120"
           d="m 660.97178,823.41369 -7.104,0 0,26.11201 -4.22401,0 0,-26.11201 -6.336,0 0,-3.84 6.336,0 0,-8.192 c 0,-3.96796 0.91733,-6.78395 2.752,-8.448 1.83466,-1.70662 4.26666,-2.55995 7.29601,-2.56 0.59731,5e-5 1.19464,0.0427 1.792,0.128 0.63998,0.0854 1.25864,0.19205 1.856,0.32 l -0.768,3.84 c -0.51202,-0.12795 -1.04536,-0.23462 -1.6,-0.32 -0.55469,-0.0853 -1.10936,-0.12795 -1.664,-0.128 -1.15202,5e-5 -2.09069,0.19205 -2.816,0.576 -0.72535,0.38404 -1.28002,0.93871 -1.664,1.664 -0.38402,0.68271 -0.64002,1.49338 -0.768,2.432 -0.12802,0.93871 -0.19202,1.94137 -0.192,3.008 l 0,7.68 7.104,0 0,3.84" />
        <path
           inkscape:connector-curvature="0"
           id="path4122"
           d="m 691.68378,834.54969 c -3e-5,-1.66398 -0.27737,-3.22131 -0.832,-4.672 -0.51203,-1.45064 -1.2587,-2.70931 -2.24,-3.776 -0.98136,-1.06664 -2.17603,-1.89864 -3.584,-2.496 -1.36536,-0.63997 -2.92269,-0.95997 -4.672,-0.96 -1.74935,3e-5 -3.32802,0.32003 -4.736,0.96 -1.36535,0.59736 -2.53868,1.42936 -3.52001,2.496 -0.93867,1.06669 -1.68534,2.32536 -2.24,3.776 -0.512,1.45069 -0.768,3.00802 -0.768,4.672 0,1.66402 0.256,3.22135 0.768,4.672 0.55466,1.45068 1.30133,2.70935 2.24,3.77601 0.98133,1.06667 2.15466,1.92 3.52001,2.56 1.40798,0.59733 2.98665,0.896 4.736,0.896 1.74931,0 3.30664,-0.29867 4.672,-0.896 1.40797,-0.64 2.60264,-1.49333 3.584,-2.56 0.9813,-1.06666 1.72797,-2.32533 2.24,-3.77601 0.55463,-1.45065 0.83197,-3.00798 0.832,-4.672 m 4.608,0 c -4e-5,2.26135 -0.40537,4.35202 -1.216,6.272 -0.76804,1.92001 -1.85603,3.58401 -3.264,4.99201 -1.40803,1.408 -3.09336,2.51733 -5.056,3.328 -1.92003,0.768 -4.05336,1.152 -6.4,1.152 -2.30402,0 -4.43735,-0.384 -6.4,-1.152 -1.92002,-0.81067 -3.58401,-1.92 -4.99201,-3.328 -1.408,-1.408 -2.51733,-3.072 -3.328,-4.99201 -0.768,-1.91998 -1.152,-4.01065 -1.152,-6.272 0,-2.26131 0.384,-4.35198 1.152,-6.272 0.81067,-1.91997 1.92,-3.58397 3.328,-4.992 1.408,-1.40797 3.07199,-2.49597 4.99201,-3.264 1.96265,-0.81063 4.09598,-1.21597 6.4,-1.216 2.34664,3e-5 4.47997,0.40537 6.4,1.216 1.96264,0.76803 3.64797,1.85603 5.056,3.264 1.40797,1.40803 2.49596,3.07203 3.264,4.992 0.81063,1.92002 1.21596,4.01069 1.216,6.272" />
        <path
           inkscape:connector-curvature="0"
           id="path4124"
           d="m 704.46777,828.91769 c 0,-1.32264 -0.0427,-2.66664 -0.128,-4.032 -0.0427,-1.3653 -0.0853,-3.13597 -0.128,-5.312 l 4.16,0 0,5.568 0.128,0 c 0.29866,-0.81064 0.72533,-1.57864 1.28,-2.304 0.55466,-0.76797 1.21599,-1.45064 1.98401,-2.048 0.81065,-0.5973 1.72798,-1.06663 2.752,-1.408 1.06665,-0.38397 2.26131,-0.57597 3.584,-0.576 1.19464,3e-5 2.23998,0.12803 3.136,0.384 l -0.832,4.16 c -0.55469,-0.2133 -1.36536,-0.31997 -2.432,-0.32 -1.62135,3e-5 -3.00802,0.32003 -4.16,0.96 -1.15202,0.59736 -2.11202,1.38669 -2.88,2.368 -0.76802,0.93869 -1.34402,1.96269 -1.72801,3.072 -0.34134,1.10936 -0.512,2.17602 -0.512,3.2 l 0,16.89601 -4.224,0 0,-20.60801" />
        <path
           inkscape:connector-curvature="0"
           id="path4126"
           d="m 756.97178,823.41369 -7.104,0 0,26.11201 -4.22401,0 0,-26.11201 -6.336,0 0,-3.84 6.336,0 0,-8.192 c 0,-3.96796 0.91733,-6.78395 2.752,-8.448 1.83466,-1.70662 4.26666,-2.55995 7.29601,-2.56 0.59731,5e-5 1.19464,0.0427 1.792,0.128 0.63998,0.0854 1.25864,0.19205 1.856,0.32 l -0.768,3.84 c -0.51202,-0.12795 -1.04536,-0.23462 -1.6,-0.32 -0.55469,-0.0853 -1.10936,-0.12795 -1.664,-0.128 -1.15202,5e-5 -2.09069,0.19205 -2.816,0.576 -0.72535,0.38404 -1.28002,0.93871 -1.664,1.664 -0.38402,0.68271 -0.64002,1.49338 -0.768,2.432 -0.12802,0.93871 -0.19202,1.94137 -0.192,3.008 l 0,7.68 7.104,0 0,3.84" />
        <path
           inkscape:connector-curvature="0"
           id="path4128"
           d="m 762.46777,828.91769 c 0,-1.32264 -0.0427,-2.66664 -0.128,-4.032 -0.0427,-1.3653 -0.0853,-3.13597 -0.128,-5.312 l 4.16,0 0,5.568 0.128,0 c 0.29866,-0.81064 0.72533,-1.57864 1.28,-2.304 0.55466,-0.76797 1.21599,-1.45064 1.98401,-2.048 0.81065,-0.5973 1.72798,-1.06663 2.752,-1.408 1.06665,-0.38397 2.26131,-0.57597 3.584,-0.576 1.19464,3e-5 2.23998,0.12803 3.136,0.384 l -0.832,4.16 c -0.55469,-0.2133 -1.36536,-0.31997 -2.432,-0.32 -1.62135,3e-5 -3.00802,0.32003 -4.16,0.96 -1.15202,0.59736 -2.11202,1.38669 -2.88,2.368 -0.76802,0.93869 -1.34402,1.96269 -1.72801,3.072 -0.34134,1.10936 -0.512,2.17602 -0.512,3.2 l 0,16.89601 -4.224,0 0,-20.60801" />
        <path
           inkscape:connector-curvature="0"
           id="path4130"
           d="m 789.41377,808.05369 c -10e-6,0.89604 -0.32001,1.64271 -0.96,2.24 -0.64,0.55471 -1.344,0.83204 -2.112,0.832 -0.768,4e-5 -1.472,-0.27729 -2.112,-0.832 -0.64,-0.59729 -0.96,-1.34396 -0.96,-2.24 0,-0.89596 0.32,-1.62129 0.96,-2.176 0.64,-0.59729 1.344,-0.89595 2.112,-0.896 0.768,5e-5 1.472,0.29871 2.112,0.896 0.63999,0.55471 0.95999,1.28004 0.96,2.176 m -0.96,41.47201 -4.224,0 0,-29.95201 4.224,0 0,29.95201" />
        <path
           inkscape:connector-curvature="0"
           id="path4132"
           d="m 821.94078,832.24569 c -3e-5,-2.85864 -0.85336,-5.16264 -2.56,-6.912 -1.70669,-1.79197 -4.09603,-2.68797 -7.168,-2.688 -1.36535,3e-5 -2.68802,0.27736 -3.968,0.832 -1.28002,0.51203 -2.41068,1.21603 -3.39201,2.112 -0.93867,0.89603 -1.70667,1.92003 -2.304,3.072 -0.55467,1.15202 -0.832,2.34669 -0.832,3.584 l 20.22401,0 m -20.35201,3.456 c 0.128,1.49335 0.49066,2.90135 1.088,4.224 0.59733,1.32268 1.38666,2.47468 2.368,3.45601 0.98133,0.93867 2.11199,1.68533 3.39201,2.24 1.27998,0.55467 2.66665,0.832 4.16,0.832 2.26131,0 4.20264,-0.512 5.824,-1.536 1.66397,-1.06667 2.92264,-2.28266 3.776,-3.64801 l 3.264,2.68801 c -1.79203,2.26133 -3.77603,3.88266 -5.952,4.864 -2.13336,0.98133 -4.43736,1.472 -6.912,1.472 -2.21869,0 -4.28802,-0.384 -6.208,-1.152 -1.87735,-0.81067 -3.49868,-1.92 -4.86401,-3.328 -1.36534,-1.408 -2.45333,-3.072 -3.264,-4.99201 -0.768,-1.91998 -1.152,-4.01065 -1.152,-6.272 0,-2.26131 0.384,-4.35198 1.152,-6.272 0.768,-1.91997 1.83467,-3.58397 3.2,-4.992 1.36533,-1.40797 2.96533,-2.49597 4.80001,-3.264 1.83465,-0.81063 3.81865,-1.21597 5.952,-1.216 2.26131,3e-5 4.28797,0.40537 6.08,1.216 1.79197,0.8107 3.2853,1.8987 4.48,3.264 1.2373,1.32269 2.17597,2.90136 2.816,4.736 0.63997,1.79202 0.95997,3.71202 0.96,5.76 l 0,1.92 -24.96001,0" />
        <path
           inkscape:connector-curvature="0"
           id="path4134"
           d="m 838.30177,819.57369 c 0.0853,0.8107 0.128,1.62136 0.128,2.432 0.0427,0.76803 0.064,1.55736 0.064,2.368 l 0.128,0 c 0.46933,-0.81064 1.06666,-1.5573 1.792,-2.24 0.72533,-0.68264 1.53599,-1.25864 2.43201,-1.728 0.89598,-0.51197 1.83465,-0.89597 2.816,-1.152 1.02398,-0.29863 2.02664,-0.44797 3.008,-0.448 3.83997,3e-5 6.6773,1.02403 8.512,3.072 1.83463,2.00536 2.75197,4.88536 2.752,8.64 l 0,19.00801 -4.224,0 0,-16.57601 c -3e-5,-3.32798 -0.57603,-5.86664 -1.728,-7.616 -1.15203,-1.79197 -3.28536,-2.68797 -6.4,-2.688 -0.21336,3e-5 -0.81069,0.0854 -1.792,0.256 -0.98135,0.1707 -2.02669,0.64003 -3.136,1.408 -1.06668,0.76803 -2.02668,1.92003 -2.88001,3.456 -0.85334,1.53602 -1.28,3.66936 -1.28,6.4 l 0,15.36001 -4.224,0 0,-23.36001 c 0,-0.81064 -0.0427,-1.83464 -0.128,-3.072 -0.0427,-1.2373 -0.10667,-2.41064 -0.192,-3.52 l 4.352,0" />
        <path
           inkscape:connector-curvature="0"
           id="path4136"
           d="m 872.45481,834.54969 c -10e-6,1.66402 0.25599,3.22135 0.768,4.672 0.55465,1.45068 1.32265,2.70935 2.304,3.77601 0.98132,1.06667 2.15465,1.92 3.52,2.56 1.40798,0.59733 2.98665,0.896 4.736,0.896 1.70664,0 3.28531,-0.29867 4.736,-0.896 1.49331,-0.64 2.7733,-1.49333 3.84,-2.56 1.06664,-1.06666 1.89864,-2.32533 2.496,-3.77601 0.5973,-1.45065 0.89597,-3.00798 0.896,-4.672 -3e-5,-1.66398 -0.2987,-3.22131 -0.896,-4.672 -0.59736,-1.45064 -1.42936,-2.70931 -2.496,-3.776 -1.0667,-1.06664 -2.34669,-1.89864 -3.84,-2.496 -1.45069,-0.63997 -3.02936,-0.95997 -4.736,-0.96 -1.74935,3e-5 -3.32802,0.32003 -4.736,0.96 -1.36535,0.59736 -2.53868,1.42936 -3.52,2.496 -0.98135,1.06669 -1.74935,2.32536 -2.304,3.776 -0.51201,1.45069 -0.76801,3.00802 -0.768,4.672 m 27.328,14.97601 -4.224,0 0,-4.992 -0.128,0 c -0.6827,1.024 -1.49336,1.89867 -2.432,2.624 -0.9387,0.72533 -1.92003,1.32266 -2.944,1.792 -1.02403,0.46933 -2.09069,0.81066 -3.2,1.024 -1.06669,0.21333 -2.09069,0.32 -3.072,0.32 -2.34669,0 -4.50135,-0.384 -6.464,-1.152 -1.92001,-0.81067 -3.58401,-1.92 -4.992,-3.328 -1.40801,-1.408 -2.51734,-3.072 -3.32801,-4.99201 -0.768,-1.91998 -1.152,-4.01065 -1.152,-6.272 0,-2.26131 0.384,-4.35198 1.152,-6.272 0.81067,-1.91997 1.92,-3.58397 3.32801,-4.992 1.40799,-1.40797 3.07199,-2.49597 4.992,-3.264 1.96265,-0.81063 4.11731,-1.21597 6.464,-1.216 0.98131,3e-5 2.00531,0.1067 3.072,0.32 1.10931,0.21337 2.17597,0.5547 3.2,1.024 1.02397,0.46936 2.0053,1.0667 2.944,1.792 0.93864,0.72536 1.7493,1.60003 2.432,2.624 l 0.128,0 0,-23.424 4.224,0 0,48.38401" />
        <path
           inkscape:connector-curvature="0"
           id="path4138"
           d="m 924.89181,826.67769 c -0.64002,-1.23731 -1.49336,-2.21864 -2.56,-2.944 -1.06669,-0.7253 -2.36802,-1.08797 -3.904,-1.088 -0.72535,3e-5 -1.47202,0.0854 -2.24,0.256 -0.72535,0.1707 -1.38668,0.44803 -1.984,0.832 -0.59735,0.34136 -1.08801,0.78936 -1.472,1.344 -0.34135,0.55469 -0.51201,1.23736 -0.512,2.048 -1e-5,1.40802 0.49065,2.43202 1.472,3.072 0.98132,0.64002 2.45332,1.19469 4.416,1.664 l 4.288,1.024 c 2.09064,0.46935 3.81864,1.42935 5.184,2.88 1.40797,1.40802 2.11197,3.17868 2.112,5.312 -3e-5,1.62135 -0.34136,3.02934 -1.024,4.22401 -0.64003,1.152 -1.51469,2.112 -2.624,2.88 -1.06669,0.72533 -2.30402,1.25866 -3.712,1.6 -1.40802,0.34133 -2.83735,0.512 -4.288,0.512 -2.30402,0 -4.45868,-0.42667 -6.464,-1.28 -1.96268,-0.896 -3.64801,-2.41067 -5.05601,-4.544 l 3.648,-2.49601 c 0.85333,1.36534 1.92,2.45334 3.20001,3.26401 1.32265,0.81067 2.87998,1.216 4.672,1.216 0.85331,0 1.70665,-0.0853 2.56,-0.256 0.85331,-0.21333 1.59998,-0.512 2.24,-0.896 0.68264,-0.42667 1.21598,-0.96 1.6,-1.6 0.42664,-0.64 0.63998,-1.38666 0.64,-2.24001 -2e-5,-1.49332 -0.55469,-2.55998 -1.664,-3.2 -1.10935,-0.68265 -2.45335,-1.21598 -4.032,-1.6 l -4.096,-0.96 c -0.51201,-0.12798 -1.21601,-0.34132 -2.112,-0.64 -0.85335,-0.29865 -1.70668,-0.74665 -2.56001,-1.344 -0.81067,-0.59731 -1.51467,-1.36531 -2.112,-2.304 -0.59733,-0.98131 -0.896,-2.17598 -0.896,-3.584 0,-1.53597 0.29867,-2.87997 0.896,-4.032 0.64,-1.15197 1.472,-2.09064 2.496,-2.816 1.06666,-0.7253 2.26133,-1.25863 3.58401,-1.6 1.32265,-0.38397 2.68798,-0.57597 4.096,-0.576 2.09065,3e-5 4.03198,0.40537 5.824,1.216 1.79197,0.8107 3.17864,2.19736 4.16,4.16 l -3.776,2.496" />
      </g>
      <g
         id="g4598-1-0"
         transform="translate(1923.5603,-6.4681082)">
        <path
           sodipodi:nodetypes="sccssss"
           inkscape:connector-curvature="0"
           id="rect4141-8-8-6-3"
           d="m -1817.846,927.40172 170,0 c 0,-0.21447 0,-180 0,-180 l -170,0 c -2.77,0 -5,2.23 -5,5 l 0,170 c 0,2.77 2.23,5 5,5 z"
           style="color:#000000;fill:#3b5998;fill-opacity:1;fill-rule:nonzero;stroke:none;stroke-width:2;marker:none;visibility:visible;display:inline;overflow:visible;enable-background:accumulate" />
        <path
           id="path62-1-2-9"
           style="fill:#ffffff;fill-opacity:1;fill-rule:nonzero;stroke:none"
           d="m -1728.2773,883.38574 0,-41.95079 13.9799,0 2.093,-16.34926 -16.0729,0 0,-10.43828 c 0,-4.73349 1.3048,-7.9591 8.0439,-7.9591 l 8.5952,-0.004 0,-14.6226 c -1.4869,-0.19885 -6.5888,-0.64411 -12.5244,-0.64411 -12.3923,0 -20.8758,7.61897 -20.8758,21.61122 l 0,12.05697 -14.0154,0 0,16.34926 14.0154,0 0,41.95079 16.7611,0 z"
           inkscape:connector-curvature="0" />
        <path
           sodipodi:nodetypes="cc"
           inkscape:connector-curvature="0"
           id="path4263-1-6-8"
           d="m -1648.8425,926.40521 0,-178.00698"
           style="fill:none;stroke:#000000;stroke-width:1.99300146;stroke-linecap:square;stroke-linejoin:miter;stroke-miterlimit:4;stroke-opacity:0.15686275;stroke-dasharray:none" />
      </g>
    </g>
  </g>
</svg>
